<?xml version="1.0" encoding="utf-8"?>
<!-- Generator: Adobe Illustrator 27.0.1, SVG Export Plug-In . SVG Version: 6.00 Build 0)  -->
<svg version="1.1" id="Layer_1" xmlns="http://www.w3.org/2000/svg" xmlns:xlink="http://www.w3.org/1999/xlink" x="0px" y="0px"
	 viewBox="0 0 757.1 182.1" style="enable-background:new 0 0 757.1 182.1;" xml:space="preserve">
<style type="text/css">
	.st0{font-family:'Avenir-Light';}
	.st1{font-size:10px;}
	.st2{font-size:9.911px;}
	.st3{fill:none;stroke:#000000;stroke-width:0.5;stroke-linejoin:round;}
	.st4{fill:#8BC53F;stroke:#231F20;stroke-miterlimit:10;}
	.st5{fill:#FFF100;stroke:#231F20;stroke-miterlimit:10;}
	.st6{fill:#F6921E;stroke:#231F20;stroke-miterlimit:10;}
	.st7{fill:#231F20;}
	.st8{font-family:'TimesNewRomanPS-ItalicMT';}
	.st9{font-size:7.5064px;}
	.st10{font-family:'TimesNewRomanPSMT';}
	.st11{fill:none;stroke:#000000;stroke-width:0.5;stroke-miterlimit:8;}
	.st12{fill:none;}
	.st13{fill:none;stroke:#FF0000;stroke-linejoin:round;}
	.st14{fill:#FF0000;}
	.st15{font-size:7.5668px;}
	.st16{font-size:7.0793px;}
	.st17{fill:#29ABE2;stroke:#231F20;stroke-miterlimit:10;}
	.st18{font-size:9.6209px;}
	.st19{font-size:5.609px;}
	.st20{font-size:7.1673px;}
	.st21{font-size:6.9575px;}
	.st22{font-size:4.0562px;}
	.st23{fill:#E3BFDA;stroke:#231F20;stroke-miterlimit:10;}
	.st24{fill:none;stroke:#231F20;stroke-miterlimit:10;}
	.st25{fill:none;stroke:#000000;stroke-width:0.5;stroke-linejoin:round;stroke-miterlimit:8;}
	.st26{fill:none;stroke:#000000;stroke-miterlimit:10;}
</style>
<text transform="matrix(1 0 0 1 -0.5897 7.5599)" class="st0 st1">a.1) Blur ReLu</text>
<text transform="matrix(1 0 0 1 142.6323 122.2719)" class="st0 st1">b) Anti-aliased sub-sampling</text>
<text transform="matrix(1 0 0 1 411.666 122.2047)" class="st0 st2">c) Anti-aliased max-pool (kernel size = stride = K)</text>
<g>
	<g>
		<g>
			<g>
				<line class="st3" x1="100.9" y1="44.2" x2="112.1" y2="44.2"/>
				<g>
					<path d="M115.1,44.2c-1.4,0.5-3.2,1.4-4.3,2.4l0.9-2.4l-0.9-2.4C111.9,42.8,113.7,43.7,115.1,44.2z"/>
				</g>
			</g>
		</g>
		<g>
			<g>
				<line class="st3" x1="142.3" y1="44.2" x2="153.5" y2="44.2"/>
				<g>
					<path d="M156.5,44.2c-1.4,0.5-3.2,1.4-4.3,2.4l0.9-2.4l-0.9-2.4C153.3,42.8,155.1,43.7,156.5,44.2z"/>
				</g>
			</g>
		</g>
		<g>
			<g>
				<line class="st3" x1="162.7" y1="44.2" x2="173.9" y2="44.2"/>
				<g>
					<path d="M176.9,44.2c-1.4,0.5-3.2,1.4-4.3,2.4l0.9-2.4l-0.9-2.4C173.7,42.8,175.5,43.7,176.9,44.2z"/>
				</g>
			</g>
		</g>
		<g>
			<g>
				<line class="st3" x1="121.7" y1="44.2" x2="132.9" y2="44.2"/>
				<g>
					<path d="M135.9,44.2c-1.4,0.5-3.2,1.4-4.3,2.4l0.9-2.4l-0.9-2.4C132.8,42.8,134.5,43.7,135.9,44.2z"/>
				</g>
			</g>
		</g>
		<g>
			<g>
				<line class="st3" x1="184.7" y1="44.2" x2="195.9" y2="44.2"/>
				<g>
					<path d="M199,44.2c-1.4,0.5-3.2,1.4-4.3,2.4l0.9-2.4l-0.9-2.4C195.8,42.8,197.5,43.7,199,44.2z"/>
				</g>
			</g>
		</g>
		<rect x="95.1" y="24.7" class="st4" width="9.7" height="39"/>
		<rect x="136" y="24.7" class="st5" width="9.7" height="39"/>
		<rect x="156.4" y="24.7" class="st6" width="9.7" height="39"/>
		<rect x="176.8" y="24.7" class="st4" width="9.7" height="39"/>
		<text transform="matrix(1 0 0 1 99.5718 45.8671)" class="st7 st8 st9">2</text>
		<text transform="matrix(1 0 0 1 181.1002 45.8671)" class="st7 st8 st9">2</text>
		<rect x="115.4" y="24.7" class="st6" width="9.7" height="39"/>
		<text transform="matrix(0 -1 1 0 121.8218 56.7027)" class="st7 st10 st9">Low-pass</text>
		<text transform="matrix(0 -1 1 0 163.3316 56.7027)" class="st7 st10 st9">Low-pass</text>
		<g>
			<g>
				<line class="st11" x1="98.5" y1="47.4" x2="98.5" y2="42.3"/>
				<g>
					<polygon points="100,43.5 98.5,42.8 97,43.5 98.5,39.9 					"/>
				</g>
			</g>
		</g>
		<g>
			<g>
				<line class="st11" x1="179.8" y1="39.9" x2="179.8" y2="45.1"/>
				<g>
					<polygon points="178.3,43.9 179.8,44.6 181.3,43.9 179.8,47.4 					"/>
				</g>
			</g>
		</g>
		<text transform="matrix(0 -1 1 0 142.9547 51.6861)" class="st7 st10 st9">ReLu</text>
		<g>
			<g>
				<line class="st3" x1="80.2" y1="44.2" x2="91.3" y2="44.2"/>
				<g>
					<path d="M94.4,44.2c-1.4,0.5-3.2,1.4-4.3,2.4l0.9-2.4l-0.9-2.4C91.2,42.8,92.9,43.7,94.4,44.2z"/>
				</g>
			</g>
		</g>
	</g>
	<g>
		<line class="st12" x1="43.9" y1="44.2" x2="72" y2="44.2"/>
		<g>
			<line class="st13" x1="50" y1="44.2" x2="66" y2="44.2"/>
			<g>
				<path class="st14" d="M43.9,44.2c2.8,1.1,6.4,2.9,8.5,4.8l-1.7-4.8l1.7-4.8C50.3,41.3,46.8,43.1,43.9,44.2z"/>
			</g>
			<g>
				<path class="st14" d="M72,44.2c-2.8,1.1-6.4,2.9-8.5,4.8l1.7-4.8l-1.7-4.8C65.7,41.3,69.2,43.1,72,44.2z"/>
			</g>
		</g>
	</g>
	<g>
		<rect x="14.5" y="24.7" class="st5" width="9.7" height="39"/>
		<text transform="matrix(0 -1 1 0 21.4587 51.6861)" class="st7 st10 st9">ReLu</text>
		<g>
			<g>
				<line class="st3" x1="24.4" y1="42.7" x2="35.6" y2="42.7"/>
				<g>
					<path d="M38.6,42.7c-1.4,0.5-3.2,1.4-4.3,2.4l0.9-2.4l-0.9-2.4C35.4,41.3,37.2,42.2,38.6,42.7z"/>
				</g>
			</g>
		</g>
		<g>
			<g>
				<line class="st3" x1="0" y1="42.7" x2="11.2" y2="42.7"/>
				<g>
					<path d="M14.2,42.7c-1.4,0.5-3.2,1.4-4.3,2.4l0.9-2.4l-0.9-2.4C11,41.3,12.8,42.2,14.2,42.7z"/>
				</g>
			</g>
		</g>
	</g>
</g>
<g>
	<g>
		<g>
			<line class="st3" x1="261.7" y1="160.2" x2="274.3" y2="160.2"/>
			<g>
				<path d="M277.4,160.2c-1.4,0.5-3.2,1.4-4.3,2.4l0.9-2.4l-0.9-2.4C274.2,158.7,275.9,159.6,277.4,160.2z"/>
			</g>
		</g>
	</g>
	<g>
		<g>
			<line class="st3" x1="286" y1="160.2" x2="298.5" y2="160.2"/>
			<g>
				<path d="M301.6,160.2c-1.4,0.5-3.2,1.4-4.3,2.4l0.9-2.4l-0.9-2.4C298.4,158.7,300.1,159.6,301.6,160.2z"/>
			</g>
		</g>
	</g>
	<rect x="254.8" y="138.7" class="st6" width="10.6" height="42.9"/>
	<rect x="277.2" y="138.7" class="st4" width="10.6" height="42.9"/>
	<text transform="matrix(1 0 0 1 281.9496 162.0186)" class="st7 st8 st15">S</text>
	<text transform="matrix(0 -1 1 0 262.435 173.9205)" class="st7 st10 st16">Low-pass</text>
	<g>
		<g>
			<line class="st11" x1="279.9" y1="155.5" x2="279.9" y2="161.4"/>
			<g>
				<polygon points="278.4,160.2 279.9,160.9 281.4,160.2 279.9,163.8 				"/>
			</g>
		</g>
	</g>
	<g>
		<g>
			<line class="st3" x1="238.2" y1="160.2" x2="250.8" y2="160.2"/>
			<g>
				<path d="M253.8,160.2c-1.4,0.5-3.2,1.4-4.3,2.4l0.9-2.4l-0.9-2.4C250.6,158.7,252.4,159.6,253.8,160.2z"/>
			</g>
		</g>
	</g>
	<rect x="231.2" y="138.7" class="st17" width="10.6" height="42.9"/>
	<text transform="matrix(0 -1 1 0 237.1186 171.5806)" class="st7 st10 st18">g</text>
	<text transform="matrix(0 -1 1 0 240.3223 166.7706)" class="st7 st10 st19">stride=1</text>
	<rect x="157.3" y="139.3" class="st17" width="10.6" height="42.9"/>
	<text transform="matrix(0 -1 1 0 163.1508 172.1138)" class="st7 st10 st18">g</text>
	<text transform="matrix(0 -1 1 0 166.3555 167.3038)" class="st7 st10 st19">stride=S</text>
	<g>
		<line class="st12" x1="191.8" y1="160.2" x2="221.5" y2="160.2"/>
		<g>
			<line class="st13" x1="197.9" y1="160.2" x2="215.4" y2="160.2"/>
			<g>
				<path class="st14" d="M191.8,160.2c2.8,1.1,6.4,2.9,8.5,4.8l-1.7-4.8l1.7-4.8C198.2,157.3,194.7,159.1,191.8,160.2z"/>
			</g>
			<g>
				<path class="st14" d="M221.5,160.2c-2.8,1.1-6.4,2.9-8.5,4.8l1.7-4.8l-1.7-4.8C215.1,157.3,218.6,159.1,221.5,160.2z"/>
			</g>
		</g>
	</g>
	<g>
		<g>
			<line class="st3" x1="169" y1="160.2" x2="181" y2="160.2"/>
			<g>
				<path d="M184,160.2c-1.4,0.5-3.2,1.4-4.3,2.4l0.9-2.4l-0.9-2.4C180.8,158.7,182.6,159.6,184,160.2z"/>
			</g>
		</g>
	</g>
	<g>
		<g>
			<line class="st3" x1="143.3" y1="160.2" x2="155.3" y2="160.2"/>
			<g>
				<path d="M158.3,160.2c-1.4,0.5-3.2,1.4-4.3,2.4l0.9-2.4l-0.9-2.4C155.1,158.7,156.9,159.6,158.3,160.2z"/>
			</g>
		</g>
	</g>
</g>
<g>
	<g>
		<g>
			<line class="st3" x1="525.7" y1="160.4" x2="538.4" y2="160.4"/>
			<g>
				<path d="M541.5,160.4c-1.4,0.5-3.2,1.4-4.3,2.4l0.9-2.4l-0.9-2.4C538.3,159,540,159.9,541.5,160.4z"/>
			</g>
		</g>
	</g>
	<rect x="518.6" y="138.7" class="st6" width="10.7" height="43.4"/>
	<text transform="matrix(0 -1 1 0 526.3561 174.315)" class="st7 st10 st20">Low-pass</text>
	<g>
		<g>
			<line class="st3" x1="502.2" y1="160.4" x2="515" y2="160.4"/>
			<g>
				<path d="M518,160.4c-1.4,0.5-3.2,1.4-4.3,2.4l0.9-2.4l-0.9-2.4C514.9,159,516.6,159.9,518,160.4z"/>
			</g>
		</g>
	</g>
	<rect x="495.8" y="138.7" class="st4" width="10.7" height="43.4"/>
	<text transform="matrix(1 0 0 1 500.7531 162.8576)" class="st7 st8 st20">2</text>
	<g>
		<g>
			<line class="st11" x1="499.6" y1="164.6" x2="499.6" y2="158.6"/>
			<g>
				<polygon points="501.1,159.8 499.6,159.1 498.1,159.8 499.6,156.3 				"/>
			</g>
		</g>
	</g>
	<g>
		<g>
			<line class="st3" x1="571.3" y1="160.4" x2="584.1" y2="160.4"/>
			<g>
				<path d="M587.1,160.4c-1.4,0.5-3.2,1.4-4.3,2.4l0.9-2.4l-0.9-2.4C583.9,159,585.7,159.9,587.1,160.4z"/>
			</g>
		</g>
	</g>
	<g>
		<g>
			<line class="st3" x1="603.3" y1="160.4" x2="612.8" y2="160.4"/>
			<g>
				<path d="M615.8,160.4c-1.4,0.5-3.2,1.4-4.3,2.4l0.9-2.4l-0.9-2.4C612.6,159,614.4,159.9,615.8,160.4z"/>
			</g>
		</g>
	</g>
	<rect x="564.3" y="138.7" class="st6" width="10.7" height="43.4"/>
	<rect x="587" y="138.7" class="st4" width="15.8" height="43.4"/>
	<text transform="matrix(1 0 0 1 591.7565 162.8576)" class="st7 st8 st20">2K</text>
	<text transform="matrix(0 -1 1 0 572.0065 174.315)" class="st7 st10 st20">Low-pass</text>
	<g>
		<g>
			<line class="st11" x1="590.4" y1="156.3" x2="590.4" y2="162.2"/>
			<g>
				<polygon points="588.9,161.1 590.4,161.7 591.8,161.1 590.4,164.6 				"/>
			</g>
		</g>
	</g>
	<g>
		<g>
			<line class="st3" x1="547.5" y1="160.4" x2="560.2" y2="160.4"/>
			<g>
				<path d="M563.3,160.4c-1.4,0.5-3.2,1.4-4.3,2.4l0.9-2.4L559,158C560.1,159,561.8,159.9,563.3,160.4z"/>
			</g>
		</g>
	</g>
	<rect x="540.4" y="138.7" class="st17" width="10.7" height="43.4"/>
	<text transform="matrix(0 -1 1 0 546.3712 173.024)" class="st7 st10 st21">pool</text>
	<text transform="matrix(0 -1 1 0 548.6885 160.6553)" class="st7 st10 st22">stride=1</text>
	<rect x="426.1" y="138.7" class="st17" width="10.7" height="43.4"/>
	<text transform="matrix(0 -1 1 0 432.0676 173.8755)" class="st7 st10 st21">pool</text>
	<text transform="matrix(0 -1 1 0 434.3848 161.5069)" class="st7 st10 st22">stride=K</text>
	<g>
		<g>
			<line class="st3" x1="436.6" y1="160.4" x2="447.8" y2="160.4"/>
			<g>
				<path d="M450.8,160.4c-1.4,0.5-3.2,1.4-4.3,2.4l0.9-2.4l-0.9-2.4C447.6,159,449.4,159.9,450.8,160.4z"/>
			</g>
		</g>
	</g>
	<g>
		<g>
			<line class="st3" x1="412.2" y1="160.4" x2="423.4" y2="160.4"/>
			<g>
				<path d="M426.4,160.4c-1.4,0.5-3.2,1.4-4.3,2.4l0.9-2.4l-0.9-2.4C423.2,159,425,159.9,426.4,160.4z"/>
			</g>
		</g>
	</g>
	<g>
		<line class="st12" x1="456.6" y1="160.4" x2="484.7" y2="160.4"/>
		<g>
			<line class="st13" x1="462.7" y1="160.4" x2="478.7" y2="160.4"/>
			<g>
				<path class="st14" d="M456.6,160.4c2.8,1.1,6.4,2.9,8.5,4.8l-1.7-4.8l1.7-4.8C463,157.6,459.5,159.4,456.6,160.4z"/>
			</g>
			<g>
				<path class="st14" d="M484.7,160.4c-2.8,1.1-6.4,2.9-8.5,4.8l1.7-4.8l-1.7-4.8C478.4,157.6,481.9,159.4,484.7,160.4z"/>
			</g>
		</g>
	</g>
</g>
<text transform="matrix(1 0 0 1 259.0606 7.3198)" class="st0 st1">a.2)  QReLu</text>
<g>
	<g>
		<g>
			<g>
				<line class="st3" x1="356.2" y1="63.6" x2="365.6" y2="63.6"/>
				<g>
					<path d="M368.6,63.6c-1.4,0.5-3.2,1.4-4.3,2.4l0.9-2.4l-0.9-2.4C365.5,62.1,367.2,63,368.6,63.6z"/>
				</g>
			</g>
		</g>
		<g>
			<g>
				<line class="st3" x1="336" y1="35.8" x2="390.5" y2="35.8"/>
				<g>
					<path d="M393.5,35.8c-1.4,0.5-3.2,1.4-4.3,2.4l0.9-2.4l-0.9-2.4C390.3,34.3,392.1,35.2,393.5,35.8z"/>
				</g>
			</g>
		</g>
		<rect x="352.1" y="43.2" class="st23" width="10.1" height="40.6"/>
		<text transform="matrix(0 -1 1 0 358.7701 78.2828)" class="st7 st10 st9">Quantile </text>
		<text transform="matrix(0 -1 1 0 358.7701 50.5826)" class="st7 st8 st9">q</text>
		<rect x="383.3" y="43.2" class="st5" width="8.5" height="40.6"/>
		<g>
			<g>
				<line class="st3" x1="398.1" y1="63.6" x2="398.1" y2="43.1"/>
				<g>
					<path d="M398.1,40.1c0.5,1.4,1.4,3.2,2.4,4.3l-2.4-0.9l-2.4,0.9C396.7,43.2,397.6,41.5,398.1,40.1z"/>
				</g>
			</g>
		</g>
		<text transform="matrix(0 -1 1 0 389.3424 72.0455)" class="st7 st10 st9">ReLu</text>
		<circle class="st24" cx="398.1" cy="35.8" r="4.6"/>
		<line class="st25" x1="398.1" y1="63.6" x2="392" y2="63.6"/>
		<line class="st25" x1="344" y1="63.8" x2="344" y2="35.9"/>
		<g>
			<g>
				<line class="st3" x1="344" y1="63.7" x2="348.3" y2="63.7"/>
				<g>
					<path d="M351.3,63.7c-1.4,0.5-3.2,1.4-4.3,2.4l0.9-2.4l-0.9-2.4C348.1,62.3,349.9,63.2,351.3,63.7z"/>
				</g>
			</g>
		</g>
		<text transform="matrix(1 0 0 1 396.5348 38.1785)" class="st7 st10 st9">+</text>
		<text transform="matrix(1 0 0 1 369.5138 80.8651)" class="st7 st10 st9">-1</text>
		<g>
			<circle class="st24" cx="372.3" cy="63.8" r="3.9"/>
			<line class="st26" x1="369.6" y1="66.6" x2="375.1" y2="61.1"/>
			<line class="st26" x1="369.6" y1="61.1" x2="375.1" y2="66.6"/>
		</g>
		<g>
			<g>
				<line class="st3" x1="376.1" y1="63.7" x2="380.4" y2="63.7"/>
				<g>
					<path d="M383.4,63.7c-1.4,0.5-3.2,1.4-4.3,2.4l0.9-2.4l-0.9-2.4C380.2,62.3,382,63.2,383.4,63.7z"/>
				</g>
			</g>
		</g>
		<g>
			<g>
				<line class="st3" x1="372.5" y1="74.7" x2="372.5" y2="70.4"/>
				<g>
					<path d="M372.5,67.3c0.5,1.4,1.4,3.2,2.4,4.3l-2.4-0.9l-2.4,0.9C371,70.5,371.9,68.8,372.5,67.3z"/>
				</g>
			</g>
		</g>
		<g>
			<g>
				<line class="st3" x1="422.9" y1="35.9" x2="434.1" y2="35.9"/>
				<g>
					<path d="M437.1,35.9c-1.4,0.5-3.2,1.4-4.3,2.4l0.9-2.4l-0.9-2.4C433.9,34.5,435.7,35.4,437.1,35.9z"/>
				</g>
			</g>
		</g>
		<g>
			<g>
				<line class="st3" x1="402.4" y1="35.9" x2="413.6" y2="35.9"/>
				<g>
					<path d="M416.6,35.9c-1.4,0.5-3.2,1.4-4.3,2.4l0.9-2.4l-0.9-2.4C413.4,34.5,415.2,35.4,416.6,35.9z"/>
				</g>
			</g>
		</g>
		<rect x="416.6" y="16.4" class="st5" width="9.7" height="39"/>
		<text transform="matrix(0 -1 1 0 423.5809 43.4029)" class="st7 st10 st9">ReLu</text>
	</g>
	<g>
		<line class="st12" x1="303.6" y1="50.1" x2="331.7" y2="50.1"/>
		<g>
			<line class="st13" x1="309.6" y1="50.1" x2="325.6" y2="50.1"/>
			<g>
				<path class="st14" d="M303.6,50.1c2.8,1.1,6.4,2.9,8.5,4.8l-1.7-4.8l1.7-4.8C309.9,47.2,306.4,49,303.6,50.1z"/>
			</g>
			<g>
				<path class="st14" d="M331.7,50.1c-2.8,1.1-6.4,2.9-8.5,4.8l1.7-4.8l-1.7-4.8C325.3,47.2,328.8,49,331.7,50.1z"/>
			</g>
		</g>
	</g>
	<g>
		<rect x="274.1" y="30.6" class="st5" width="9.7" height="39"/>
		<text transform="matrix(0 -1 1 0 281.1088 57.5689)" class="st7 st10 st9">ReLu</text>
		<g>
			<g>
				<line class="st3" x1="284" y1="48.6" x2="295.2" y2="48.6"/>
				<g>
					<path d="M298.2,48.6c-1.4,0.5-3.2,1.4-4.3,2.4l0.9-2.4l-0.9-2.4C295,47.2,296.8,48.1,298.2,48.6z"/>
				</g>
			</g>
		</g>
		<g>
			<g>
				<line class="st3" x1="259.7" y1="48.6" x2="270.8" y2="48.6"/>
				<g>
					<path d="M273.9,48.6c-1.4,0.5-3.2,1.4-4.3,2.4l0.9-2.4l-0.9-2.4C270.7,47.2,272.4,48.1,273.9,48.6z"/>
				</g>
			</g>
		</g>
	</g>
</g>
<text transform="matrix(1 0 0 1 497.2187 7.5599)" class="st0 st1">a.3) Anti-aliased ReLu (Blur Relu + QReLu)</text>
<g>
	<g>
		<g>
			<g>
				<line class="st3" x1="594.3" y1="64.7" x2="603.8" y2="64.7"/>
				<g>
					<path d="M606.8,64.7c-1.4,0.5-3.2,1.4-4.3,2.4l0.9-2.4l-0.9-2.4C603.6,63.3,605.4,64.2,606.8,64.7z"/>
				</g>
			</g>
		</g>
		<g>
			<g>
				<line class="st3" x1="640.3" y1="36.9" x2="651.5" y2="36.9"/>
				<g>
					<path d="M654.5,36.9c-1.4,0.5-3.2,1.4-4.3,2.4l0.9-2.4l-0.9-2.4C651.3,35.5,653.1,36.4,654.5,36.9z"/>
				</g>
			</g>
		</g>
		<g>
			<g>
				<line class="st3" x1="574.1" y1="36.9" x2="628.7" y2="36.9"/>
				<g>
					<path d="M631.7,36.9c-1.4,0.5-3.2,1.4-4.3,2.4l0.9-2.4l-0.9-2.4C628.5,35.5,630.3,36.4,631.7,36.9z"/>
				</g>
			</g>
		</g>
		<rect x="590.2" y="44.4" class="st23" width="10.1" height="40.6"/>
		<text transform="matrix(0 -1 1 0 596.9287 79.4058)" class="st7 st10 st9">Quantile </text>
		<text transform="matrix(0 -1 1 0 596.9287 51.7056)" class="st7 st8 st9">q</text>
		<rect x="621.4" y="44.4" class="st5" width="8.5" height="40.6"/>
		<g>
			<g>
				<line class="st3" x1="636.3" y1="64.7" x2="636.3" y2="44.2"/>
				<g>
					<path d="M636.3,41.2c0.5,1.4,1.4,3.2,2.4,4.3l-2.4-0.9l-2.4,0.9C634.8,44.4,635.7,42.6,636.3,41.2z"/>
				</g>
			</g>
		</g>
		<text transform="matrix(0 -1 1 0 627.501 73.1675)" class="st7 st10 st9">ReLu</text>
		<circle class="st24" cx="636.2" cy="36.9" r="4.6"/>
		<line class="st25" x1="636.3" y1="64.7" x2="630.1" y2="64.7"/>
		<line class="st25" x1="582.1" y1="64.9" x2="582.1" y2="37"/>
		<g>
			<g>
				<line class="st3" x1="582.1" y1="64.8" x2="586.4" y2="64.8"/>
				<g>
					<path d="M589.5,64.8c-1.4,0.5-3.2,1.4-4.3,2.4l0.9-2.4l-0.9-2.4C586.3,63.4,588,64.3,589.5,64.8z"/>
				</g>
			</g>
		</g>
		<text transform="matrix(1 0 0 1 634.6934 39.3009)" class="st7 st10 st9">+</text>
		<text transform="matrix(1 0 0 1 607.6724 81.9875)" class="st7 st10 st9">-1</text>
		<g>
			<circle class="st24" cx="610.5" cy="64.9" r="3.9"/>
			<line class="st26" x1="607.7" y1="67.7" x2="613.2" y2="62.2"/>
			<line class="st26" x1="607.7" y1="62.2" x2="613.2" y2="67.7"/>
		</g>
		<g>
			<g>
				<line class="st3" x1="614.2" y1="64.9" x2="618.5" y2="64.9"/>
				<g>
					<path d="M621.6,64.9c-1.4,0.5-3.2,1.4-4.3,2.4l0.9-2.4l-0.9-2.4C618.4,63.4,620.1,64.3,621.6,64.9z"/>
				</g>
			</g>
		</g>
		<g>
			<g>
				<line class="st3" x1="610.6" y1="75.8" x2="610.6" y2="71.5"/>
				<g>
					<path d="M610.6,68.5c0.5,1.4,1.4,3.2,2.4,4.3l-2.4-0.9l-2.4,0.9C609.2,71.6,610.1,69.9,610.6,68.5z"/>
				</g>
			</g>
		</g>
		<g>
			<g>
				<line class="st3" x1="659.1" y1="36.9" x2="670.3" y2="36.9"/>
				<g>
					<path d="M673.3,36.9c-1.4,0.5-3.2,1.4-4.3,2.4l0.9-2.4l-0.9-2.4C670.1,35.5,671.9,36.4,673.3,36.9z"/>
				</g>
			</g>
		</g>
		<g>
			<g>
				<line class="st3" x1="700.5" y1="36.9" x2="711.6" y2="36.9"/>
				<g>
					<path d="M714.7,36.9c-1.4,0.5-3.2,1.4-4.3,2.4l0.9-2.4l-0.9-2.4C711.5,35.5,713.2,36.4,714.7,36.9z"/>
				</g>
			</g>
		</g>
		<g>
			<g>
				<line class="st3" x1="720.9" y1="36.9" x2="732.1" y2="36.9"/>
				<g>
					<path d="M735.1,36.9c-1.4,0.5-3.2,1.4-4.3,2.4l0.9-2.4l-0.9-2.4C731.9,35.5,733.7,36.4,735.1,36.9z"/>
				</g>
			</g>
		</g>
		<g>
			<g>
				<line class="st3" x1="679.9" y1="36.9" x2="691.1" y2="36.9"/>
				<g>
					<path d="M694.1,36.9c-1.4,0.5-3.2,1.4-4.3,2.4l0.9-2.4l-0.9-2.4C690.9,35.5,692.7,36.4,694.1,36.9z"/>
				</g>
			</g>
		</g>
		<g>
			<g>
				<line class="st3" x1="742.9" y1="36.9" x2="754.1" y2="36.9"/>
				<g>
					<path d="M757.1,36.9c-1.4,0.5-3.2,1.4-4.3,2.4l0.9-2.4l-0.9-2.4C753.9,35.5,755.7,36.4,757.1,36.9z"/>
				</g>
			</g>
		</g>
		<rect x="653.3" y="17.4" class="st4" width="9.7" height="39"/>
		<rect x="694.1" y="17.4" class="st5" width="9.7" height="39"/>
		<rect x="714.6" y="17.4" class="st6" width="9.7" height="39"/>
		<rect x="735" y="17.4" class="st4" width="9.7" height="39"/>
		<text transform="matrix(1 0 0 1 657.7466 38.5661)" class="st7 st8 st9">2</text>
		<text transform="matrix(1 0 0 1 739.2749 38.5661)" class="st7 st8 st9">2</text>
		<rect x="673.6" y="17.4" class="st6" width="9.7" height="39"/>
		<text transform="matrix(0 -1 1 0 679.9966 49.4019)" class="st7 st10 st9">Low-pass</text>
		<text transform="matrix(0 -1 1 0 721.5063 49.4019)" class="st7 st10 st9">Low-pass</text>
		<g>
			<g>
				<line class="st11" x1="656.7" y1="40.1" x2="656.7" y2="35"/>
				<g>
					<polygon points="658.2,36.2 656.7,35.5 655.2,36.2 656.7,32.6 					"/>
				</g>
			</g>
		</g>
		<g>
			<g>
				<line class="st11" x1="738" y1="32.6" x2="738" y2="37.8"/>
				<g>
					<polygon points="736.5,36.6 738,37.3 739.5,36.6 738,40.1 					"/>
				</g>
			</g>
		</g>
		<text transform="matrix(0 -1 1 0 701.1294 44.3853)" class="st7 st10 st9">ReLu</text>
	</g>
	<g>
		<line class="st12" x1="541.7" y1="51.2" x2="569.8" y2="51.2"/>
		<g>
			<line class="st13" x1="547.8" y1="51.2" x2="563.8" y2="51.2"/>
			<g>
				<path class="st14" d="M541.7,51.2c2.8,1.1,6.4,2.9,8.5,4.8l-1.7-4.8l1.7-4.8C548.1,48.3,544.6,50.1,541.7,51.2z"/>
			</g>
			<g>
				<path class="st14" d="M569.8,51.2c-2.8,1.1-6.4,2.9-8.5,4.8l1.7-4.8l-1.7-4.8C563.5,48.3,567,50.1,569.8,51.2z"/>
			</g>
		</g>
	</g>
	<g>
		<rect x="512.3" y="31.7" class="st5" width="9.7" height="39"/>
		<text transform="matrix(0 -1 1 0 519.2674 58.691)" class="st7 st10 st9">ReLu</text>
		<g>
			<g>
				<line class="st3" x1="522.2" y1="49.7" x2="533.4" y2="49.7"/>
				<g>
					<path d="M536.4,49.7c-1.4,0.5-3.2,1.4-4.3,2.4l0.9-2.4l-0.9-2.4C533.2,48.3,535,49.2,536.4,49.7z"/>
				</g>
			</g>
		</g>
		<g>
			<g>
				<line class="st3" x1="497.8" y1="49.7" x2="509" y2="49.7"/>
				<g>
					<path d="M512,49.7c-1.4,0.5-3.2,1.4-4.3,2.4l0.9-2.4l-0.9-2.4C508.8,48.3,510.6,49.2,512,49.7z"/>
				</g>
			</g>
		</g>
	</g>
</g>
</svg>
